<svg width="444" height="444" viewBox="0 0 444 444" fill="none" xmlns="http://www.w3.org/2000/svg">
<path d="M181.432 1.23306C186.116 0.00787377 187.124 3.36377 187.899 6.15369C189.785 12.9405 191.351 19.8223 192.849 26.7084C194.049 32.2205 194.795 37.8326 196.036 43.334C198.15 52.6995 200.572 61.9952 202.711 71.3551C203.96 76.821 204.775 82.3867 206.04 87.8484C207.107 92.4542 208.764 96.9269 209.758 101.545C211.047 107.532 211.72 113.654 213.05 119.631C215.126 128.956 217.589 138.195 219.752 147.503C220.194 149.408 219.67 151.574 220.273 153.395C220.706 154.706 222.271 155.642 223.331 156.745C224.22 155.536 225.556 154.448 225.921 153.097C227.424 147.539 228.704 141.917 229.917 136.286C230.46 133.762 230.46 131.118 231.04 128.605C232.228 123.455 233.803 118.391 234.931 113.229C237.707 100.522 240.246 87.7629 243.041 75.0601C244.038 70.5291 245.691 66.1432 246.706 61.6153C248.92 51.7465 250.74 41.7875 253.055 31.9442C255.064 23.4059 257.58 14.9879 259.759 6.48761C260.161 4.92126 260.022 3.21637 260.195 0.652405C270.509 3.09271 280.655 5.49316 291 7.94092C291 10.4523 291 12.6022 291 14.7521C291 153.064 291 291.375 291 429.687C291 436.796 290.147 437.298 282.968 438.13C278.861 438.606 274.939 440.527 270.869 441.54C267.479 442.384 263.996 442.852 259.791 443.627C259.791 351.235 259.796 259.8 259.732 168.366C259.732 167.254 258.843 166.141 257.071 164.601C256.048 167.096 254.718 169.513 254.061 172.101C252.521 178.171 251.282 184.318 249.961 190.443C248.615 196.685 247.404 202.956 245.979 209.18C244.047 217.62 241.985 226.031 239.942 234.446C239.007 238.296 237.937 242.114 237.012 245.966C235.367 252.818 233.662 259.658 232.211 266.551C230.355 275.365 228.782 284.237 226.974 293.061C226.093 297.36 224.954 301.605 222.717 305.99C221.478 300.936 220.242 295.88 218.999 290.826C217.439 284.48 215.719 278.168 214.357 271.779C213.046 265.632 212.23 259.38 210.974 253.22C208.733 242.231 206.359 231.269 203.972 220.311C202.371 212.965 200.664 205.642 198.981 198.314C196.658 188.198 194.371 178.072 191.895 167.993C191.616 166.859 190.215 166.002 189.335 165.016C188.587 165.948 187.521 166.778 187.175 167.841C186.781 169.052 187.004 170.473 187.004 171.802C187 258.605 187 345.408 187 432.211C187 432.877 186.948 433.549 187.008 434.21C187.782 442.656 187.827 444.745 177.008 441.994C171.406 440.57 165.689 439.551 160.174 437.86C158.523 437.354 157.305 435.258 156.051 433.756C155.723 433.363 156 432.464 156 431.798C156.001 291.153 156.002 150.509 156.006 9.86426C156.006 9.53406 156.049 9.20389 156.139 7.892C163.278 6.30389 170.716 4.68494 178.128 2.95972C179.166 2.71823 180.082 1.95511 181.432 1.23306Z" fill="white"/>
<path d="M9.71459 159.692C13.251 150.399 16.0812 141.234 19.9547 132.534C24.0336 123.372 28.727 114.427 33.8635 105.811C38.4789 98.0691 44.0594 90.9027 49.75 82.7111C51.5943 91.8353 53.1167 100.346 55.0849 108.753C56.3519 114.165 58.5127 119.365 59.828 124.768C60.8957 129.154 61.1897 133.723 62.028 138.173C63.0919 143.821 64.266 149.453 65.6016 155.042C65.9498 156.499 67.0738 157.77 67.8415 159.127C68.4512 158.796 69.0608 158.465 69.6704 158.133C71.1132 152.364 72.6417 146.615 73.9796 140.821C76.1821 131.284 78.3069 121.729 80.3788 112.163C82.3108 103.242 83.973 94.261 86.0464 85.3748C88.0361 76.8475 90.4525 68.4207 92.5842 59.9253C94.1374 53.7349 95.474 47.49 97.0448 41.3043C97.3816 39.9777 97.9846 38.2506 99.0163 37.6401C110.822 30.6551 122.735 23.8507 135.713 16.3674C136.245 21.9663 136.951 25.9331 136.952 29.9003C137.01 156.059 137.013 282.217 136.961 408.375C136.959 414.815 136.396 421.254 136.061 428.419C124.935 425.545 115.673 418.31 104.407 412.911C104.407 331.082 104.407 248.582 104.407 166.082C103.729 165.878 103.051 165.674 102.374 165.47C101.25 167.577 99.6611 169.566 99.0885 171.814C97.2678 178.96 95.7502 186.187 94.2614 193.413C93.064 199.225 92.2409 205.116 90.9589 210.907C89.2272 218.73 87.176 226.482 85.3321 234.281C82.5237 246.158 79.8006 258.055 76.9937 269.933C74.7115 279.59 72.2364 289.204 70.1215 298.898C69.5682 301.434 70.0381 304.193 70.0381 306.85C69.2727 306.92 68.5073 306.99 67.7419 307.06C66.4947 301.838 65.2232 296.622 64.0063 291.394C62.5145 284.985 61.0466 278.569 59.6088 272.147C58.3804 266.661 57.2616 261.149 56.0011 255.67C53.8835 246.465 51.5186 237.314 49.5737 228.074C46.8941 215.342 44.6009 202.53 41.9076 189.801C41.4472 187.626 39.8148 185.698 37.7518 183.838C30.9918 208.972 31.1377 233.905 35.7718 259.339C40.3175 284.287 50.3013 306.74 63.5095 328.994C51.4601 328.994 40.0821 329.065 28.7081 328.888C27.5324 328.87 25.8324 327.635 25.3059 326.523C22.0455 319.642 18.68 312.771 16.0652 305.634C12.9954 297.256 10.5342 288.645 8.04201 280.067C6.47722 274.681 5.12304 269.213 4.06869 263.706C2.82372 257.203 1.39583 250.643 1.13311 244.065C0.661306 232.252 1.0487 220.405 0.985403 208.573C0.929372 198.103 3.0963 187.994 5.58068 177.906C7.03872 171.986 8.18218 165.988 9.71459 159.692Z" fill="white"/>
<path d="M383.252 380.249C362.356 400.485 339.099 416.58 313 427.979C313 418.644 313.288 409.445 312.891 400.275C312.655 394.825 314.318 392.057 319.5 389.479C326.275 386.108 332.232 380.976 338.252 376.235C346.118 370.04 353.519 363.245 361.512 357.228C364.038 355.327 364 353.451 364 351.071C364 268.422 364 185.774 364 103.125C364 88.2637 364.146 88.0824 352.98 79.0672C344.506 72.2255 335.659 65.8382 326.847 59.4287C324.312 57.5851 321.283 56.4349 318.552 54.8435C315.072 52.8152 312.393 50.6573 312.847 45.6656C313.462 38.8897 312.991 32.0158 313.003 25.1839C313.011 20.1746 315.821 18.1049 320.646 20.0757C325.649 22.119 330.599 24.4212 335.253 27.153C340.247 30.0839 344.965 33.5172 349.632 36.963C357.685 42.9081 365.844 48.7458 373.524 55.1494C384.772 64.5274 394.216 75.6712 402.786 87.5017C408.556 95.4674 414.527 103.397 419.255 111.979C424.524 121.544 428.563 131.795 432.985 141.814C435.338 147.145 437.782 152.496 439.429 158.061C441.103 163.719 441.975 169.633 442.881 175.484C443.043 176.524 441.651 178.825 440.991 178.82C432.092 178.749 423.194 178.413 414.3 178.051C410.955 177.915 410.494 175.672 409.844 172.733C408.508 166.695 406.424 160.805 404.383 154.947C403.246 151.682 401.648 148.568 400.097 145.466C399.709 144.688 398.701 144.22 396.777 142.595C396.777 195.966 396.777 247.84 396.777 299.828C400.219 301.144 401.944 298.696 402.924 295.868C405.359 288.846 407.495 281.721 409.753 274.637C409.803 274.479 409.894 274.332 409.933 274.171C410.529 271.724 410.384 267.961 411.878 267.125C414.333 265.752 417.847 266.222 420.921 266.012C426.315 265.644 431.715 265.363 437.111 265.02C441.364 264.75 444.102 267.62 442.91 271.829C440.095 281.773 437.414 291.802 433.763 301.45C430.011 311.362 425.648 321.117 420.661 330.465C416.365 338.519 411.249 346.235 405.708 353.499C398.725 362.651 390.942 371.192 383.252 380.249Z" fill="white"/>
</svg>
